# xmcd
#
# Track frame offsets:
#	150
#	15030
#	34576
#	47556
#	67796
#	84783
#	101303
#	112293
#	130041
#	141809
#	161307
#
# Disc length: 2314 seconds
# Revision: 0
# Processed by: cddbd v1.5.2PL0 Copyright (c) Steve Scherf et al.
# Submitted via: dBpowerAMP V12.0
#
DISCID=7309080b
DTITLE=Various Artist - Let's Ride, Boys! (On The Importance Of Commas)
DYEAR=2013
DGENRE=Country
TTITLE0=The Possum Posse - Liquored Me Up
TTITLE1=The Possum Posse - Make Up Your Own Damned Mind
TTITLE2=The Possum Posse (Feat. Cody Braun) - Ginsu
TTITLE3=The Possum Posse - Amarillo
TTITLE4=The Possum Posse (Feat. Matt Hillver) - She's Holdin' Something Against Me
TTITLE5=The Possum Posse - Well Mannered Riders
TTITLE6=The Possum Posse - Buffalo Riders In The Sky With Diamonds (Instrumental)
TTITLE7=The Possum Posse - Alright By Mine
TTITLE8=The Possum Posse - Battered Husband Blues
TTITLE9=The Possum Posse - The Open Road
TTITLE10=The Possum Posse - High Grounds Coffee Shop
EXTD=
EXTT0=
EXTT1=
EXTT2=
EXTT3=
EXTT4=
EXTT5=
EXTT6=
EXTT7=
EXTT8=
EXTT9=
EXTT10=
PLAYORDER=
